<svg width="63" height="53" viewBox="0 0 63 53" fill="none" xmlns="http://www.w3.org/2000/svg">
<path d="M6.87109 12.2695H55.8711C58.5391 12.2695 60.7031 14.4336 60.7031 17.1016V45.9414C60.7031 48.6133 58.5391 50.7773 55.8711 50.7773H6.87109C4.20312 50.7773 2.03906 48.6133 2.03906 45.9414V17.1016C2.03906 14.4336 4.20312 12.2695 6.87109 12.2695Z" fill="#424A5C"/>
<path d="M6.86719 12.2656H10.8555L10.8595 50.7734H6.86728C4.19931 50.7734 2.03525 48.6094 2.03525 45.9414V17.0977C2.03525 14.4297 4.19931 12.2656 6.86728 12.2656" fill="#475161"/>
<path d="M55.8711 50.7734H51.8828V12.2656H55.8711C58.5391 12.2656 60.7031 14.4297 60.7031 17.0977V45.9414C60.7031 48.6094 58.5391 50.7734 55.8711 50.7734Z" fill="#475161"/>
<path d="M0.472656 14.7305C1.08203 13.1602 2.23437 11.8711 3.68359 11.0703C2.20312 11.8398 1.05469 13.1406 0.472656 14.7305ZM55.7617 52.7812H55.8711C59.2031 52.7812 61.9727 50.3906 62.5625 47.2305C61.9141 50.3906 59.1133 52.7812 55.7617 52.7812V52.7812ZM0.34375 47.8984C0.98437 50.0898 2.72266 51.8281 4.91406 52.4688C2.74219 51.7891 1.02344 50.0703 0.34375 47.8984ZM55.8711 10.2695H55.7617C59.5937 10.2695 62.7031 13.3789 62.7031 17.2109V17.1016C62.7031 13.3281 59.6328 10.2695 55.8711 10.2695Z" fill="#261E38"/>
<path d="M37.2578 2.44141H24.6875C23.1523 2.44141 21.8047 3.46875 21.3945 4.94922L19.3789 12.2695H42.5703L40.5508 4.94922C40.1445 3.46875 38.7969 2.44141 37.2578 2.44141" fill="#EBF5F5"/>
<path d="M55.7656 12.2695H6.97656C4.25 12.2695 2.03906 14.4805 2.03906 17.207V22.0938H60.7031V17.207C60.7031 14.4805 58.4922 12.2695 55.7656 12.2695Z" fill="#E3F0F3"/>
<path d="M55.8711 14.2695H55.7617C57.3828 14.2695 58.7031 15.5898 58.7031 17.2109V17.1016C58.7031 15.5391 57.4336 14.2695 55.8711 14.2695ZM6.87109 14.2695C5.3125 14.2695 4.03125 15.5391 4.03125 17.1016V17.2109C4.03125 15.5898 5.35156 14.2695 6.97266 14.2695H6.87109ZM31.3711 21.6211C28.8711 21.6211 26.5938 22.5508 24.8438 24.0898H37.9023C36.1523 22.5508 33.8633 21.6211 31.3711 21.6211Z" fill="#261E38"/>
<path d="M60.7031 40.9492H2.03906V45.8398C2.03906 48.5664 4.25 50.7773 6.97656 50.7773H55.7656C58.4922 50.7773 60.7031 48.5664 60.7031 45.8398V40.9492Z" fill="#E3F0F3"/>
<path d="M10.8594 40.9258H2.03906V45.8164C2.03906 48.543 4.25 50.7539 6.97656 50.7539H10.8594V40.9258Z" fill="#EBF5F5"/>
<path d="M10.8594 12.2969H6.72266C4.13672 12.2969 2.03906 14.3945 2.03906 16.9805V22.1211H10.8594V12.2969" fill="#EBF5F5"/>
<path d="M51.8828 12.2656H56.0195C58.6055 12.2656 60.7031 14.3633 60.7031 16.9492V22.0938H51.8828V12.2656" fill="#EBF5F5"/>
<path d="M51.8828 40.9531H60.7031V45.8398C60.7031 48.5664 58.4922 50.7773 55.7656 50.7773H51.8828V40.9531Z" fill="#EBF5F5"/>
<path d="M55.7617 48.7812H55.8711C57.4336 48.7812 58.7031 47.5117 58.7031 45.9414V45.8398C58.7031 47.4609 57.3828 48.7812 55.7617 48.7812V48.7812ZM24.8438 38.9492C26.5938 40.4883 28.8711 41.4219 31.3711 41.4219C33.8633 41.4219 36.1523 40.4883 37.9023 38.9492H24.8438ZM4.03125 45.8398V45.9414C4.03125 47.5117 5.3125 48.7812 6.87109 48.7812H6.97266C5.35156 48.7812 4.03125 47.4609 4.03125 45.8398" fill="#261E38"/>
<path d="M22.957 39.9375C18.3125 35.2891 18.3125 27.7578 22.957 23.1094C27.6055 18.4648 35.1367 18.4648 39.7852 23.1094C44.4297 27.7578 44.4297 35.2891 39.7852 39.9375C35.1367 44.582 27.6055 44.582 22.957 39.9375Z" fill="#99B8E3"/>
<path d="M22.9609 39.9336C22.9609 39.9336 24.6445 33.6875 31.3711 31.5234C38.1016 29.3594 39.7852 23.1094 39.7852 23.1094C44.4336 27.7539 44.4336 35.2891 39.7852 39.9336C35.1406 44.582 27.6055 44.582 22.9609 39.9336" fill="#A6C5E8"/>
<path d="M57.4062 20.0898H39.2617C37.0234 18.5313 34.3047 17.6211 31.3711 17.6211C28.4336 17.6211 25.7148 18.5313 23.4727 20.0898H5.35938C4.62892 20.0898 4.03125 19.4961 4.03125 18.7656V16.9805C4.03125 15.4844 5.24609 14.2695 6.74219 14.2695H55.8711C57.4375 14.2695 58.7031 15.5352 58.7031 17.1016V18.793C58.7031 19.5078 58.1211 20.0898 57.4062 20.0898V20.0898ZM57.4062 38.9492H43.1133C44.4844 36.8008 45.2734 34.25 45.2734 31.5195C45.2734 28.7891 44.4844 26.2383 43.1016 24.0898H57.4062C58.1211 24.0898 58.7031 24.6719 58.7031 25.3867V37.6523C58.7031 38.3672 58.1211 38.9492 57.4062 38.9492ZM21.4727 31.5195C21.4727 28.5586 22.7812 25.8984 24.8438 24.0898C26.5938 22.5508 28.8711 21.6211 31.3711 21.6211C33.8633 21.6211 36.1523 22.5508 37.9023 24.0898C39.9648 25.8984 41.2734 28.5586 41.2734 31.5195C41.2734 34.4805 39.9648 37.1406 37.9023 38.9492C36.1523 40.4883 33.8633 41.4219 31.3711 41.4219C28.8711 41.4219 26.5938 40.4883 24.8438 38.9492C22.7812 37.1406 21.4727 34.4805 21.4727 31.5195ZM58.7031 45.9414C58.7031 47.5117 57.4336 48.7812 55.8711 48.7812H6.87109C5.3125 48.7812 4.03125 47.5117 4.03125 45.9414V44.2461C4.03125 43.5313 4.61329 42.9492 5.32812 42.9492H23.4727C25.7148 44.5117 28.4336 45.4219 31.3711 45.4219C34.3047 45.4219 37.0234 44.5117 39.2617 42.9492H57.4062C58.1211 42.9492 58.7031 43.5313 58.7031 44.2461V45.9414ZM5.32812 24.0898H19.6328C18.2617 26.2383 17.4727 28.7891 17.4727 31.5195C17.4727 34.25 18.2617 36.8008 19.6328 38.9492H5.32812C4.61329 38.9492 4.03125 38.3672 4.03125 37.6523V25.3867C4.03125 24.6719 4.61329 24.0898 5.32812 24.0898ZM23.3242 5.48047C23.4922 4.87109 24.0547 4.44141 24.6914 4.44141H37.2539C37.8945 4.44141 38.4531 4.87109 38.6211 5.48047L39.9414 10.2695H22.0039L23.3242 5.48047ZM55.7617 10.2695H45.082C44.4961 10.2695 43.9844 9.87891 43.832 9.31641L42.4844 4.42188C41.832 2.07812 39.6836 0.441406 37.2539 0.441406H24.6914C22.2617 0.441406 20.1133 2.07812 19.4648 4.42188L18.1133 9.31641C17.9609 9.87891 17.4492 10.2695 16.8633 10.2695H6.97266C6.73437 10.2695 6.50391 10.2812 6.26172 10.3086C6.04297 10.3281 5.83203 10.3594 5.61328 10.3984C5.43359 10.4414 5.24219 10.4804 5.0625 10.5312C4.89453 10.5781 4.72266 10.6289 4.55469 10.6914C4.39453 10.75 4.24219 10.8086 4.09375 10.8711C3.95312 10.9297 3.82422 11 3.68359 11.0703C2.23437 11.8711 1.08203 13.1601 0.472656 14.7305V14.7385C0.402356 14.9299 0.332027 15.1291 0.273438 15.34C0.273438 15.3791 0.261737 15.4103 0.253937 15.4494C0.191437 15.6603 0.152374 15.8713 0.121124 16.0783C0.0938243 16.2306 0.0742305 16.3908 0.0625305 16.551C0.0430305 16.7619 0.031311 16.9885 0.031311 17.2111V45.84C0.031311 46.0783 0.0430103 46.3088 0.0743103 46.551C0.0938103 46.7814 0.132906 47.0119 0.171906 47.2307C0.222706 47.4611 0.281311 47.6799 0.343811 47.8986C1.0235 50.0705 2.74225 51.7892 4.91412 52.4689C5.13287 52.5314 5.35162 52.59 5.58209 52.6408C5.80475 52.6799 6.03131 52.7189 6.26178 52.7385C6.50397 52.7697 6.73443 52.7815 6.97272 52.7815H55.7618C59.1133 52.7815 61.9141 50.3909 62.5626 47.2307C62.6017 47.012 62.6446 46.7815 62.6641 46.551C62.6915 46.3088 62.7032 46.0784 62.7032 45.8401V17.2112C62.7032 13.3792 59.5978 10.2698 55.7618 10.2698" fill="#261E38"/>
<path d="M53.1523 36.2305H49.8281C48.7266 36.2305 47.8281 35.3359 47.8281 34.2305C47.8281 33.1289 48.7266 32.2305 49.8281 32.2305H53.1523C54.2578 32.2305 55.1523 33.1289 55.1523 34.2305C55.1523 35.3359 54.2578 36.2305 53.1523 36.2305Z" fill="#261E38"/>
</svg>
